<svg version="1.1" id="Layer_1" xmlns="http://www.w3.org/2000/svg" xmlns:xlink="http://www.w3.org/1999/xlink" x="0px" y="0px"
	 viewBox="-359.3 264.9 78.7 40.7" style="enable-background:new -359.3 264.9 78.7 40.7;" xml:space="preserve"><g id="svgg"><path id="path0" d="M37.780 13.632 L 37.780 24.927 49.075 24.927 L 60.370 24.927 60.370 13.632 L 60.370 2.337 49.075 2.337 L 37.780 2.337 37.780 13.632 M8.958 55.307 L 8.958 69.328 22.980 69.328 L 37.001 69.328 37.001 55.307 L 37.001 41.285 22.980 41.285 L 8.958 41.285 8.958 55.307 M56.180 65.725 L 56.280 86.660 77.410 86.761 L 98.539 86.862 98.539 65.826 L 98.539 44.791 77.309 44.791 L 56.079 44.791 56.180 65.725 M141.383 171.957 L 141.383 299.124 184.519 299.124 C 237.535 299.124,240.541 298.903,254.030 294.014 C 303.992 275.906,325.548 217.817,299.230 172.211 C 284.991 147.539,259.065 131.429,231.061 129.853 L 226.290 129.584 226.290 150.448 L 226.290 171.311 228.919 171.567 C 230.365 171.707,232.074 171.973,232.717 172.156 C 233.359 172.340,234.937 172.696,236.222 172.948 C 246.395 174.939,258.064 184.045,263.401 194.158 C 268.498 203.816,269.923 214.384,267.418 223.953 C 266.366 227.970,266.061 228.811,264.235 232.717 C 258.845 244.246,247.053 253.347,233.688 256.293 C 230.228 257.055,184.134 257.303,183.519 256.562 C 183.163 256.133,183.078 236.403,183.154 171.527 L 183.252 87.050 210.906 87.050 L 238.559 87.050 244.970 88.149 C 255.906 90.024,264.906 92.554,274.971 96.583 C 277.642 97.652,287.456 102.555,289.689 103.936 C 318.191 121.565,336.475 143.911,346.656 173.559 C 371.481 245.850,325.914 324.396,250.438 339.414 C 238.074 341.874,232.421 342.030,160.273 341.891 L 98.734 341.772 98.636 235.735 L 98.538 129.698 77.311 129.698 L 56.085 129.698 56.182 256.767 L 56.280 383.836 146.056 383.825 C 210.509 383.818,236.931 383.690,239.727 383.372 C 246.517 382.600,255.971 381.301,256.306 381.095 C 256.483 380.985,258.434 380.559,260.641 380.148 C 266.316 379.092,275.608 376.527,281.597 374.364 C 296.797 368.874,307.237 363.602,320.740 354.599 C 357.940 329.794,384.777 288.862,392.642 244.929 C 398.564 211.857,394.353 174.800,381.519 147.030 C 381.222 146.388,380.167 144.109,379.175 141.967 C 365.496 112.448,343.328 88.004,312.756 68.728 C 302.439 62.223,286.111 55.112,272.639 51.256 C 251.739 45.274,245.461 44.805,186.271 44.797 L 141.383 44.791 141.383 171.957 " stroke="none" fill="#000000" fill-rule="evenodd"></path><path id="path1" d="M0.000 194.742 L 0.000 389.484 200.000 389.484 L 400.000 389.484 400.000 194.742 L 400.000 0.000 200.000 0.000 L 0.000 0.000 0.000 194.742 M60.668 1.883 C 61.051 2.126,61.138 4.747,61.058 13.659 L 60.954 25.122 48.978 25.225 L 37.001 25.328 37.001 13.670 C 37.001 4.708,37.114 1.967,37.488 1.816 C 38.307 1.486,60.142 1.548,60.668 1.883 M37.687 55.158 C 37.771 66.736,37.694 69.304,37.252 69.671 C 36.865 69.992,32.752 70.088,22.544 70.015 L 8.374 69.912 8.272 55.893 C 8.215 48.182,8.254 41.651,8.358 41.380 C 8.508 40.991,11.632 40.908,23.067 40.988 L 37.585 41.091 37.687 55.158 M98.835 65.725 L 98.734 87.050 77.313 87.050 L 55.891 87.050 55.790 65.725 L 55.690 44.401 77.313 44.401 L 98.936 44.401 98.835 65.725 M246.154 45.296 C 248.189 45.629,251.694 46.192,253.944 46.545 C 256.193 46.899,258.734 47.337,259.591 47.518 C 266.119 48.900,268.648 49.489,269.506 49.825 C 270.051 50.038,271.636 50.498,273.028 50.848 C 275.953 51.582,280.341 53.005,283.839 54.354 C 292.727 57.783,292.418 57.651,299.110 60.854 C 308.016 65.116,313.945 68.646,325.748 76.714 C 328.795 78.797,338.385 86.795,342.013 90.279 C 350.241 98.182,352.601 100.742,358.649 108.331 C 363.963 114.997,368.724 121.704,371.232 126.054 C 377.062 136.169,381.094 144.239,383.803 151.215 C 386.287 157.614,386.758 158.882,387.674 161.653 C 389.801 168.085,392.631 179.546,393.392 184.810 C 393.640 186.524,394.077 189.153,394.363 190.652 C 396.218 200.361,396.091 230.358,394.159 239.143 C 393.947 240.107,393.433 242.911,393.016 245.375 C 392.055 251.057,390.764 257.025,390.277 258.033 C 390.070 258.462,389.628 259.902,389.295 261.234 C 388.592 264.049,386.848 269.401,385.452 273.028 C 384.916 274.421,384.015 276.783,383.450 278.277 C 382.884 279.772,382.280 281.174,382.106 281.393 C 381.932 281.612,381.655 282.230,381.491 282.765 C 380.937 284.573,374.534 297.117,372.395 300.587 C 361.479 318.291,349.623 332.262,335.346 344.246 C 333.739 345.594,332.074 346.999,331.646 347.367 C 329.009 349.632,321.322 354.982,313.924 359.700 C 309.768 362.350,299.825 367.514,294.450 369.813 C 292.629 370.592,290.613 371.477,289.971 371.778 C 286.093 373.599,272.452 378.080,267.965 379.008 C 266.787 379.251,265.545 379.595,265.206 379.772 C 264.867 379.949,262.544 380.444,260.045 380.872 C 257.545 381.299,255.335 381.751,255.134 381.876 C 254.684 382.154,243.358 383.507,237.001 384.042 C 233.981 384.297,201.104 384.399,144.109 384.331 L 55.891 384.226 55.891 256.670 L 55.891 129.114 77.313 129.114 L 98.734 129.114 98.832 235.151 L 98.930 341.188 165.629 341.187 C 239.189 341.187,239.634 341.174,251.412 338.674 C 286.983 331.122,315.119 310.920,335.450 278.335 C 341.660 268.380,348.731 249.739,350.537 238.559 C 350.779 237.059,351.227 234.606,351.531 233.106 C 353.247 224.663,353.242 203.914,351.523 195.326 C 351.223 193.827,350.779 191.373,350.537 189.873 C 349.505 183.482,345.946 171.870,343.108 165.632 C 342.694 164.724,342.356 163.883,342.356 163.763 C 342.356 163.264,337.293 153.390,335.374 150.146 C 322.116 127.738,301.530 109.157,278.481 98.795 C 276.660 97.977,274.469 96.989,273.612 96.600 C 257.731 89.394,242.428 87.254,206.719 87.248 L 183.836 87.244 183.836 171.762 L 183.836 256.280 206.145 256.280 C 230.444 256.280,233.209 256.111,238.694 254.283 C 263.504 246.018,275.452 217.143,263.234 194.981 C 263.011 194.576,262.489 193.642,262.075 192.904 C 258.977 187.388,251.761 180.333,246.543 177.718 C 246.008 177.449,245.307 177.058,244.985 176.848 C 243.604 175.945,239.902 174.482,237.196 173.770 C 235.589 173.347,234.007 172.894,233.679 172.763 C 233.351 172.631,231.424 172.397,229.395 172.241 L 225.706 171.957 225.605 150.753 C 225.550 139.091,225.654 129.400,225.836 129.218 C 227.836 127.218,250.240 131.904,260.079 136.380 C 261.418 136.989,262.594 137.488,262.691 137.488 C 263.138 137.488,271.540 142.384,273.766 143.942 C 291.819 156.573,305.170 176.213,309.040 195.829 C 309.365 197.480,309.804 199.533,310.015 200.389 C 313.730 215.504,308.799 242.158,299.567 256.865 C 286.192 278.171,269.235 290.950,246.543 296.825 C 237.691 299.116,237.499 299.124,187.064 299.124 L 140.993 299.124 140.993 171.740 L 140.993 44.356 191.723 44.523 C 235.248 44.665,242.979 44.775,246.154 45.296 " stroke="none" fill="#fcfcfc" fill-rule="evenodd"></path><path id="path2" d="M43.354 25.218 C 46.527 25.284,51.609 25.284,54.649 25.218 C 57.688 25.152,55.093 25.099,48.880 25.099 C 42.668 25.099,40.181 25.153,43.354 25.218 M37.177 55.307 C 37.177 63.126,37.229 66.324,37.293 62.415 C 37.356 58.505,37.356 52.108,37.293 48.199 C 37.229 44.289,37.177 47.488,37.177 55.307 M228.145 129.584 C 228.629 129.677,229.330 129.674,229.703 129.576 C 230.075 129.479,229.679 129.403,228.822 129.407 C 227.965 129.411,227.660 129.491,228.145 129.584 M346.038 333.885 L 344.499 335.540 346.154 334.001 C 347.693 332.569,347.988 332.230,347.693 332.230 C 347.630 332.230,346.885 332.975,346.038 333.885 " stroke="none" fill="#b8b8b8" fill-rule="evenodd"></path><path id="path3" d="M37.567 2.439 C 37.463 2.710,37.427 7.924,37.488 14.026 L 37.598 25.122 37.689 13.735 L 37.780 2.349 49.172 2.239 L 60.565 2.130 49.160 2.039 C 40.266 1.968,37.714 2.056,37.567 2.439 M8.756 55.404 L 8.763 69.523 22.980 69.530 L 37.196 69.538 23.082 69.428 L 8.968 69.318 8.858 55.302 L 8.749 41.285 8.756 55.404 M66.727 44.693 C 72.686 44.754,82.326 44.754,88.148 44.693 C 93.971 44.632,89.094 44.583,77.313 44.583 C 65.531 44.583,60.767 44.633,66.727 44.693 M141.173 44.888 C 141.072 45.156,141.034 102.512,141.089 172.347 L 141.189 299.318 141.286 172.056 L 141.383 44.794 185.881 44.693 L 230.380 44.593 185.869 44.497 C 150.548 44.421,141.320 44.502,141.173 44.888 M234.183 45.070 C 234.775 45.160,235.651 45.157,236.130 45.065 C 236.609 44.972,236.125 44.899,235.054 44.902 C 233.982 44.905,233.591 44.981,234.183 45.070 M240.409 45.449 C 240.784 45.547,241.397 45.547,241.772 45.449 C 242.147 45.351,241.840 45.270,241.091 45.270 C 240.341 45.270,240.034 45.351,240.409 45.449 M183.249 171.762 C 183.249 218.354,183.294 237.415,183.350 214.119 C 183.405 190.823,183.405 152.702,183.350 129.406 C 183.294 106.110,183.249 125.170,183.249 171.762 M238.462 87.513 C 238.836 87.611,239.450 87.611,239.825 87.513 C 240.200 87.415,239.893 87.335,239.143 87.335 C 238.393 87.335,238.087 87.415,238.462 87.513 M341.967 90.944 C 342.694 91.694,343.376 92.308,343.483 92.308 C 343.590 92.308,343.083 91.694,342.356 90.944 C 341.630 90.195,340.947 89.581,340.840 89.581 C 340.733 89.581,341.240 90.195,341.967 90.944 M347.809 96.714 C 347.809 96.781,348.379 97.351,349.075 97.980 L 350.341 99.124 349.197 97.858 C 348.131 96.678,347.809 96.413,347.809 96.714 M315.677 124.245 C 317.596 126.173,319.253 127.751,319.361 127.751 C 319.468 127.751,317.985 126.173,316.066 124.245 C 314.147 122.317,312.489 120.740,312.382 120.740 C 312.275 120.740,313.758 122.317,315.677 124.245 M66.672 129.600 C 72.387 129.661,81.851 129.661,87.704 129.601 C 93.556 129.540,88.880 129.490,77.313 129.490 C 65.745 129.490,60.956 129.540,66.672 129.600 M226.079 129.796 C 225.977 130.063,225.938 139.572,225.994 150.925 L 226.095 171.568 227.459 171.619 L 228.822 171.669 227.556 171.496 L 226.290 171.324 226.290 150.539 C 226.290 131.072,226.333 129.744,226.972 129.577 C 227.611 129.410,227.610 129.396,226.960 129.354 C 226.578 129.329,226.182 129.528,226.079 129.796 M285.297 154.236 C 286.569 155.521,287.697 156.573,287.804 156.573 C 287.911 156.573,286.958 155.521,285.686 154.236 C 284.415 152.950,283.286 151.899,283.179 151.899 C 283.072 151.899,284.025 152.950,285.297 154.236 M230.282 172.031 C 230.657 172.129,231.271 172.129,231.646 172.031 C 232.020 171.933,231.714 171.853,230.964 171.853 C 230.214 171.853,229.907 171.933,230.282 172.031 M255.875 184.323 C 256.830 185.341,257.662 186.173,257.725 186.173 C 258.017 186.173,257.708 185.824,255.988 184.210 L 254.138 182.473 255.875 184.323 M395.053 203.311 C 395.053 204.489,395.126 204.971,395.216 204.382 C 395.305 203.793,395.305 202.829,395.216 202.240 C 395.126 201.650,395.053 202.132,395.053 203.311 M395.485 214.216 C 395.485 217.751,395.544 219.197,395.616 217.429 C 395.688 215.662,395.688 212.770,395.616 211.003 C 395.544 209.236,395.485 210.682,395.485 214.216 M310.563 214.216 C 310.563 216.465,310.627 217.386,310.706 216.261 C 310.785 215.136,310.785 213.296,310.706 212.171 C 310.627 211.047,310.563 211.967,310.563 214.216 M353.402 214.216 C 353.402 216.251,353.468 217.084,353.548 216.066 C 353.628 215.049,353.628 213.384,353.548 212.366 C 353.468 211.349,353.402 212.181,353.402 214.216 M268.491 214.216 C 268.491 216.037,268.558 216.782,268.640 215.871 C 268.722 214.961,268.722 213.471,268.640 212.561 C 268.558 211.650,268.491 212.395,268.491 214.216 M395.053 225.122 C 395.053 226.300,395.126 226.782,395.216 226.193 C 395.305 225.604,395.305 224.640,395.216 224.051 C 395.126 223.462,395.053 223.944,395.053 225.122 M255.878 244.109 L 253.749 246.349 255.988 244.220 C 258.069 242.242,258.406 241.870,258.117 241.870 C 258.056 241.870,257.049 242.877,255.878 244.109 M194.645 256.962 C 200.696 257.022,210.599 257.022,216.650 256.962 C 222.702 256.901,217.751 256.852,205.648 256.852 C 193.544 256.852,188.593 256.901,194.645 256.962 M285.678 273.905 L 282.181 277.507 285.784 274.010 C 287.765 272.087,289.387 270.465,289.387 270.407 C 289.387 270.125,288.926 270.558,285.678 273.905 M233.398 298.613 C 233.773 298.711,234.387 298.711,234.761 298.613 C 235.136 298.515,234.830 298.435,234.080 298.435 C 233.330 298.435,233.023 298.515,233.398 298.613 M350.125 329.406 L 348.783 330.867 350.243 329.524 C 351.603 328.275,351.883 327.945,351.586 327.945 C 351.521 327.945,350.863 328.603,350.125 329.406 M130.738 341.869 C 148.341 341.926,177.260 341.926,195.003 341.869 C 212.747 341.813,198.345 341.768,162.999 341.768 C 127.653 341.768,113.136 341.813,130.738 341.869 M230.288 383.921 C 230.880 384.011,231.756 384.008,232.235 383.916 C 232.714 383.823,232.230 383.750,231.159 383.753 C 230.088 383.756,229.696 383.832,230.288 383.921 " stroke="none" fill="#0f0e0f" fill-rule="evenodd"></path><path id="path4" d="M60.370 13.710 C 60.263 20.073,60.309 25.144,60.473 24.980 C 60.637 24.815,60.725 19.610,60.668 13.412 L 60.564 2.142 60.370 13.710 M15.871 41.187 C 19.781 41.251,26.178 41.251,30.088 41.187 C 33.997 41.124,30.798 41.072,22.980 41.072 C 15.161 41.072,11.962 41.124,15.871 41.187 " stroke="none" fill="#757575" fill-rule="evenodd"></path><path id="path5" d="M37.084 13.512 C 37.038 19.765,37.132 24.963,37.293 25.062 C 37.454 25.162,37.540 21.886,37.485 17.782 C 37.295 3.570,37.166 2.194,37.084 13.512 M66.672 87.147 C 72.387 87.207,81.851 87.207,87.704 87.147 C 93.556 87.086,88.880 87.037,77.313 87.036 C 65.745 87.036,60.956 87.086,66.672 87.147 M195.452 87.147 C 201.947 87.207,212.463 87.207,218.821 87.147 C 225.178 87.087,219.864 87.038,207.011 87.038 C 194.158 87.038,188.956 87.087,195.452 87.147 M343.914 92.430 C 343.914 92.497,344.484 93.066,345.180 93.695 L 346.446 94.839 345.302 93.574 C 344.236 92.394,343.914 92.129,343.914 92.430 M255.485 184.323 C 256.440 185.341,257.273 186.173,257.335 186.173 C 257.628 186.173,257.318 185.824,255.599 184.210 L 253.749 182.473 255.485 184.323 M285.870 274.099 L 283.350 276.728 285.979 274.208 C 287.425 272.822,288.608 271.639,288.608 271.579 C 288.608 271.292,288.211 271.657,285.870 274.099 M99.447 384.323 C 123.403 384.379,162.487 384.379,186.302 384.323 C 210.116 384.268,190.516 384.222,142.746 384.222 C 94.976 384.222,75.491 384.268,99.447 384.323 " stroke="none" fill="#999999" fill-rule="evenodd"></path><path id="path6" d="M98.721 65.823 C 98.721 77.283,98.771 81.972,98.831 76.241 C 98.892 70.511,98.892 61.134,98.831 55.404 C 98.771 49.674,98.721 54.362,98.721 65.823 M183.638 171.762 C 183.638 218.354,183.684 237.415,183.739 214.119 C 183.794 190.823,183.794 152.702,183.739 129.406 C 183.684 106.110,183.638 125.170,183.638 171.762 M98.731 235.638 C 98.731 294.012,98.776 317.892,98.832 288.705 C 98.887 259.518,98.887 211.758,98.832 182.571 C 98.776 153.384,98.731 177.264,98.731 235.638 M225.693 150.536 C 225.693 162.103,225.742 166.779,225.803 160.927 C 225.864 155.074,225.864 145.610,225.803 139.895 C 225.742 134.179,225.693 138.968,225.693 150.536 M353.020 214.216 C 353.020 216.680,353.083 217.687,353.160 216.456 C 353.238 215.224,353.238 213.208,353.160 211.977 C 353.083 210.745,353.020 211.753,353.020 214.216 M310.946 214.411 C 310.945 216.339,311.011 217.177,311.093 216.273 C 311.174 215.369,311.175 213.791,311.095 212.767 C 311.014 211.743,310.948 212.483,310.946 214.411 M268.090 214.216 C 268.090 215.609,268.160 216.178,268.247 215.482 C 268.333 214.786,268.333 213.647,268.247 212.950 C 268.160 212.254,268.090 212.824,268.090 214.216 M226.972 256.555 C 227.454 256.648,228.242 256.648,228.724 256.555 C 229.206 256.462,228.812 256.387,227.848 256.387 C 226.884 256.387,226.490 256.462,226.972 256.555 M315.093 304.382 C 313.497 305.988,312.279 307.303,312.386 307.303 C 312.493 307.303,313.886 305.988,315.482 304.382 C 317.078 302.775,318.296 301.461,318.189 301.461 C 318.082 301.461,316.688 302.775,315.093 304.382 M230.288 384.311 C 230.880 384.400,231.756 384.398,232.235 384.305 C 232.714 384.213,232.230 384.140,231.159 384.143 C 230.088 384.145,229.696 384.221,230.288 384.311 " stroke="none" fill="#b8b8b8" fill-rule="evenodd"></path><path id="path7" d="M43.330 1.849 C 46.490 1.915,51.660 1.915,54.820 1.849 C 57.980 1.784,55.394 1.730,49.075 1.730 C 42.756 1.730,40.170 1.784,43.330 1.849 M60.932 13.437 C 60.932 19.864,60.985 22.547,61.051 19.401 C 61.116 16.254,61.116 10.996,61.051 7.716 C 60.986 4.436,60.932 7.011,60.932 13.437 M8.367 55.501 L 8.374 69.912 22.590 69.920 L 36.806 69.927 22.692 69.817 L 8.578 69.708 8.469 55.399 L 8.359 41.091 8.367 55.501 M37.566 55.307 C 37.566 63.126,37.618 66.324,37.682 62.415 C 37.746 58.505,37.746 52.108,37.682 48.199 C 37.618 44.289,37.566 47.488,37.566 55.307 M55.878 65.628 C 55.878 77.410,55.927 82.286,55.988 76.464 C 56.049 70.642,56.049 61.002,55.988 55.042 C 55.928 49.083,55.878 53.846,55.878 65.628 M55.876 129.406 C 55.775 129.674,55.737 187.118,55.792 257.059 L 55.892 384.226 55.989 256.761 L 56.086 129.296 77.470 129.400 C 89.232 129.457,98.773 129.372,98.674 129.211 C 98.337 128.666,56.084 128.858,55.876 129.406 M225.756 129.227 C 225.652 129.397,226.211 129.472,226.999 129.394 C 229.155 129.181,229.411 128.984,227.579 128.950 C 226.681 128.933,225.861 129.058,225.756 129.227 M194.477 256.572 C 200.437 256.633,210.077 256.633,215.899 256.572 C 221.721 256.512,216.845 256.462,205.063 256.462 C 193.281 256.462,188.518 256.512,194.477 256.572 M234.567 341.067 C 234.942 341.165,235.555 341.165,235.930 341.067 C 236.305 340.969,235.998 340.889,235.248 340.889 C 234.499 340.889,234.192 340.969,234.567 341.067 M131.353 341.480 C 149.294 341.536,178.651 341.536,196.592 341.480 C 214.533 341.424,199.854 341.378,163.973 341.378 C 128.092 341.378,113.413 341.424,131.353 341.480 M237.688 383.921 C 238.280 384.011,239.156 384.008,239.635 383.916 C 240.114 383.823,239.630 383.750,238.559 383.753 C 237.488 383.756,237.096 383.832,237.688 383.921 " stroke="none" fill="#d1d1d1" fill-rule="evenodd"></path><path id="path8" d="" stroke="none" fill="#100f8fc" fill-rule="evenodd"></path></g></svg>
